<svg xmlns="http://www.w3.org/2000/svg" width="100%" height="100%" viewBox="0 0 640 640">
  <g transform="rotate(25, 320, 320) translate(120, 10)">
    <path fill="#000000" stroke="#000000" stroke-width="2" stroke-linejoin="round" d="M 200, 20 Q 210, 80 215, 150 C 220, 200 220, 250 235, 280 L 380, 420 L 380, 435 C 320, 435 280, 440 265, 450 L 265, 480 L 330, 530 L 330, 545 L 255, 540 L 245, 600 L 210, 600 L 210, 550 L 200, 570 L 190, 550 L 190, 600 L 155, 600 L 145, 540 L 70, 545 L 70, 530 L 135, 480 L 135, 450 C 120, 440 80, 435 20, 435 L 20, 420 L 165, 280 C 180, 250 180, 200 185, 150 Q 190, 80 200, 20 Z" />
  </g>
</svg>