<?xml version="1.0" standalone="no"?>
<!DOCTYPE svg PUBLIC "-//W3C//DTD SVG 20010904//EN"
 "http://www.w3.org/TR/2001/REC-SVG-20010904/DTD/svg10.dtd">
<svg version="1.0" xmlns="http://www.w3.org/2000/svg"
 width="1600.000000pt" height="1280.000000pt" viewBox="0 0 1600.000000 1280.000000"
 preserveAspectRatio="xMidYMid meet">

<g transform="translate(0.000000,1280.000000) scale(0.100000,-0.100000)"
fill="#000000" stroke="none">
<path d="M4280 11690 c0 -5 -30 -10 -67 -12 -39 -2 -68 -8 -70 -15 -6 -18 56
-43 108 -43 26 0 51 -4 54 -10 3 -5 33 -10 66 -10 53 0 62 -3 92 -32 18 -18
39 -46 47 -63 8 -16 23 -40 35 -53 11 -13 19 -27 18 -30 -3 -13 36 -89 52
-102 8 -7 15 -18 15 -25 0 -6 9 -20 20 -30 11 -10 20 -23 20 -30 0 -7 9 -20
20 -30 11 -10 20 -24 20 -30 0 -7 7 -18 15 -25 9 -7 25 -33 35 -56 11 -24 24
-46 30 -49 6 -3 19 -26 30 -50 11 -24 24 -47 30 -50 6 -3 19 -26 30 -50 11
-24 25 -47 31 -50 10 -7 33 -59 27 -61 -2 -1 6 -11 16 -23 11 -12 15 -21 11
-21 -5 0 0 -10 11 -22 11 -13 26 -36 34 -53 8 -16 23 -37 32 -46 10 -9 18 -24
18 -33 0 -9 5 -16 10 -16 6 0 10 -8 10 -18 0 -10 9 -24 20 -32 11 -8 20 -21
20 -30 0 -9 9 -22 20 -30 11 -8 20 -22 20 -32 0 -10 3 -18 8 -18 4 0 13 -15
21 -32 8 -18 21 -42 30 -53 10 -11 28 -42 41 -70 13 -27 30 -58 38 -67 24 -29
62 -110 62 -133 0 -31 -59 -75 -99 -75 -11 0 -23 -4 -26 -10 -3 -5 -16 -10
-29 -10 -24 0 -46 -17 -46 -36 0 -13 54 -44 77 -44 7 0 21 -4 31 -10 9 -5 55
-12 102 -15 84 -6 86 -7 133 -51 26 -25 47 -52 47 -60 0 -7 5 -14 10 -14 6 0
10 -8 10 -18 0 -10 9 -24 20 -32 11 -8 20 -21 20 -30 0 -9 9 -22 20 -30 11 -8
20 -26 20 -40 0 -14 9 -32 20 -40 11 -8 20 -22 20 -32 0 -10 5 -18 10 -18 6 0
10 -6 10 -14 0 -7 7 -19 15 -26 20 -17 65 -110 65 -135 0 -33 -59 -75 -105
-75 -38 0 -95 -36 -95 -60 0 -17 26 -40 44 -40 9 0 16 -4 16 -10 0 -5 18 -10
40 -10 22 0 40 -4 40 -10 0 -6 30 -10 70 -10 108 0 133 -18 197 -149 26 -53
50 -98 53 -101 3 -3 36 -68 74 -145 37 -77 75 -151 83 -165 8 -14 17 -33 20
-42 3 -10 9 -18 14 -18 5 0 9 -9 9 -20 0 -11 5 -20 10 -20 6 0 10 -9 10 -20 0
-11 5 -20 10 -20 6 0 10 -9 10 -19 0 -11 3 -21 8 -23 9 -4 132 -249 132 -264
0 -6 23 -55 50 -110 28 -54 50 -100 50 -102 -1 -3 44 -102 61 -134 5 -10 9
-27 9 -37 0 -11 5 -23 10 -26 6 -3 10 -42 10 -86 0 -77 -1 -79 -24 -79 -14 0
-28 -4 -31 -10 -4 -6 -100 -10 -255 -10 -155 0 -251 -4 -255 -10 -4 -6 -97
-10 -245 -10 -148 0 -241 -4 -245 -10 -4 -6 -103 -10 -265 -10 -142 0 -261 -4
-264 -8 -3 -5 -94 -10 -203 -11 -112 -1 -199 -6 -201 -12 -2 -5 -114 -9 -272
-9 -169 0 -271 -4 -275 -10 -4 -6 -135 -10 -360 -10 -225 0 -356 4 -360 10 -3
6 -26 10 -51 10 -24 0 -44 5 -44 10 0 6 -20 10 -44 10 -25 0 -48 4 -51 10 -3
6 -21 10 -40 10 -19 0 -37 5 -40 10 -3 6 -17 10 -30 10 -13 0 -27 5 -30 10 -3
6 -17 10 -30 10 -13 0 -27 5 -30 10 -3 6 -17 10 -30 10 -13 0 -27 5 -30 10 -3
6 -15 10 -25 10 -11 0 -35 9 -55 20 -20 11 -44 20 -55 20 -11 0 -20 5 -20 10
0 6 -9 10 -20 10 -11 0 -20 5 -20 10 0 6 -8 10 -18 10 -10 0 -24 9 -32 20 -8
11 -22 20 -32 20 -10 0 -18 5 -18 10 0 6 -9 10 -20 10 -11 0 -20 5 -20 10 0 6
-6 10 -13 10 -8 0 -24 12 -38 26 -13 14 -33 30 -44 35 -32 16 -64 35 -82 51
-10 8 -34 22 -54 31 -20 9 -42 23 -49 32 -7 8 -18 15 -25 15 -6 0 -20 9 -30
20 -10 11 -23 20 -30 20 -7 0 -20 9 -30 20 -10 11 -23 20 -30 20 -6 0 -22 12
-36 26 -13 14 -42 34 -64 44 -22 10 -51 30 -64 44 -14 14 -30 26 -36 26 -7 0
-20 9 -30 20 -10 11 -23 20 -30 20 -6 0 -22 11 -35 25 -13 14 -29 25 -35 25
-7 0 -20 9 -30 20 -10 11 -23 20 -30 20 -6 0 -24 14 -40 30 -16 17 -34 30 -40
30 -7 0 -20 9 -30 20 -10 11 -23 20 -30 20 -6 0 -24 14 -40 30 -16 17 -34 30
-40 30 -6 0 -17 9 -25 20 -8 11 -21 20 -30 20 -9 0 -22 9 -30 20 -8 11 -21 20
-30 20 -9 0 -22 9 -30 20 -8 11 -21 20 -28 20 -8 0 -27 14 -42 30 -15 17 -32
30 -37 30 -6 0 -18 9 -28 20 -10 11 -21 17 -25 15 -4 -2 -15 4 -25 15 -10 11
-23 20 -30 20 -7 0 -20 9 -30 20 -10 11 -23 20 -30 20 -7 0 -20 9 -30 20 -10
11 -23 20 -30 20 -7 0 -20 9 -30 20 -10 11 -23 20 -30 20 -6 0 -24 14 -40 30
-16 17 -34 30 -41 30 -6 0 -17 7 -24 15 -7 9 -32 25 -55 35 -23 10 -48 26 -55
35 -8 9 -29 15 -56 15 -23 0 -46 5 -49 10 -3 6 -19 10 -35 10 -16 0 -32 -4
-35 -10 -4 -6 -75 -10 -181 -10 -139 0 -174 -3 -174 -13 0 -22 31 -78 46 -84
8 -3 14 -14 14 -24 0 -10 5 -19 10 -19 6 0 10 -8 10 -18 0 -10 9 -24 20 -32
11 -8 20 -22 20 -32 0 -10 5 -18 10 -18 6 0 10 -9 10 -20 0 -11 3 -20 8 -20 4
0 13 -15 21 -32 38 -89 52 -117 61 -123 6 -3 19 -26 30 -50 11 -24 24 -46 30
-50 5 -3 23 -35 40 -70 17 -35 35 -67 40 -70 5 -3 32 -52 60 -110 28 -58 55
-107 60 -110 5 -3 27 -43 50 -89 22 -46 46 -89 54 -95 8 -7 12 -20 9 -29 -2
-10 5 -26 16 -36 12 -11 21 -25 21 -33 0 -7 5 -13 10 -13 6 0 10 -9 10 -20 0
-11 5 -20 10 -20 6 0 10 -8 10 -18 0 -10 9 -24 20 -32 11 -8 20 -22 20 -32 0
-10 5 -18 10 -18 6 0 10 -9 10 -20 0 -11 5 -20 10 -20 6 0 10 -9 10 -19 0 -11
3 -21 8 -23 4 -1 18 -25 31 -53 14 -27 31 -58 39 -67 23 -27 82 -150 82 -170
0 -10 -4 -18 -10 -18 -5 0 -10 -9 -10 -20 0 -17 -7 -20 -40 -20 -22 0 -40 -4
-40 -10 0 -5 -13 -10 -30 -10 -16 0 -30 -4 -30 -10 0 -5 -11 -10 -24 -10 -14
0 -28 -4 -31 -10 -3 -5 -14 -10 -23 -10 -25 0 -163 -70 -169 -86 -7 -20 12
-40 63 -64 24 -12 44 -26 44 -31 0 -5 8 -9 19 -9 10 0 46 -14 80 -32 59 -30
61 -33 61 -70 0 -21 -4 -38 -10 -38 -5 0 -10 -8 -10 -18 0 -10 -9 -24 -20 -32
-11 -8 -20 -21 -20 -30 0 -9 -9 -22 -20 -30 -11 -8 -20 -21 -20 -28 0 -8 -12
-26 -27 -41 -30 -28 -47 -53 -62 -86 -5 -12 -16 -27 -25 -34 -9 -7 -16 -21
-16 -30 0 -9 -9 -22 -20 -29 -11 -7 -20 -19 -20 -28 0 -8 -14 -27 -30 -41 -17
-13 -30 -33 -30 -44 0 -10 -4 -19 -10 -19 -5 0 -10 -6 -10 -13 0 -8 -9 -22
-20 -32 -11 -10 -20 -23 -20 -30 0 -6 -18 -29 -40 -50 -22 -21 -40 -44 -40
-50 0 -7 -9 -20 -20 -30 -11 -10 -20 -23 -20 -30 0 -6 -13 -24 -30 -40 -16
-16 -30 -34 -30 -40 0 -7 -9 -20 -20 -30 -10 -9 -19 -20 -18 -24 2 -12 -20
-57 -36 -70 -9 -7 -16 -18 -16 -24 0 -6 -10 -21 -21 -33 -12 -13 -19 -30 -16
-38 6 -14 33 -16 191 -16 112 0 187 4 191 10 3 6 17 10 30 10 13 0 27 4 30 10
3 6 17 10 29 10 13 0 29 7 36 15 7 8 37 27 69 42 31 15 58 31 59 35 2 4 12 8
23 8 10 0 19 5 19 10 0 6 9 10 20 10 11 0 20 5 20 10 0 6 9 10 20 10 11 0 20
5 20 10 0 6 9 10 20 10 11 0 20 5 20 10 0 6 6 10 14 10 7 0 19 7 26 15 7 8 41
29 76 45 35 17 66 35 69 40 7 11 128 70 143 70 5 0 15 7 22 15 7 8 50 33 96
55 46 23 86 45 89 50 3 4 40 25 83 46 42 21 84 46 93 56 9 10 24 18 33 18 9 0
16 5 16 10 0 6 8 10 18 10 10 0 24 9 32 20 8 11 22 20 32 20 10 0 18 5 18 10
0 6 9 10 19 10 11 0 21 3 23 8 2 4 23 17 46 30 45 23 126 30 137 12 3 -5 17
-10 30 -10 13 0 27 -4 30 -10 3 -5 21 -10 40 -10 19 0 37 -4 40 -10 3 -6 17
-10 30 -10 13 0 27 -4 30 -10 3 -5 15 -10 25 -10 11 0 35 -9 55 -20 20 -11 49
-20 65 -20 16 0 32 -4 35 -10 3 -6 17 -10 31 -10 13 0 24 -4 24 -10 0 -5 14
-10 30 -10 17 0 30 -4 30 -10 0 -5 15 -10 34 -10 19 0 38 -5 41 -10 3 -6 17
-10 30 -10 13 0 27 -4 30 -10 3 -6 17 -10 30 -10 13 0 27 -4 30 -10 3 -5 17
-10 30 -10 13 0 27 -4 30 -10 3 -5 21 -10 40 -10 19 0 37 -4 40 -10 3 -5 21
-10 40 -10 19 0 37 -4 40 -10 3 -5 17 -10 31 -10 13 0 24 -4 24 -10 0 -5 14
-10 30 -10 17 0 30 -4 30 -10 0 -5 15 -10 34 -10 19 0 38 -4 41 -10 3 -5 17
-10 30 -10 13 0 26 -4 29 -9 3 -5 37 -12 76 -16 39 -4 73 -11 76 -16 3 -5 25
-9 49 -9 24 0 47 -4 50 -10 3 -5 26 -10 50 -10 24 0 47 -4 50 -10 3 -5 22 -10
41 -10 19 0 34 -4 34 -10 0 -5 15 -10 34 -10 19 0 38 -4 41 -10 3 -6 26 -10
50 -10 24 0 47 -4 50 -10 3 -5 26 -10 50 -10 24 0 47 -4 50 -10 3 -6 26 -10
50 -10 24 0 47 -4 50 -10 3 -5 21 -10 40 -10 19 0 37 -4 40 -10 3 -6 31 -10
61 -10 30 0 54 -4 54 -10 0 -5 20 -10 44 -10 25 0 48 -4 51 -10 3 -5 30 -10
60 -10 30 0 57 -4 60 -10 3 -5 34 -10 69 -10 34 0 66 -4 72 -9 10 -10 74 -18
209 -27 50 -3 94 -10 99 -15 14 -13 553 -12 561 1 8 13 172 13 180 0 3 -5 35
-10 70 -10 35 0 67 -4 70 -10 3 -5 26 -10 50 -10 24 0 47 -4 50 -10 3 -5 19
-10 35 -10 16 0 32 -4 35 -10 3 -5 21 -10 40 -10 19 0 37 -4 40 -10 3 -5 26
-10 50 -10 24 0 47 -4 50 -10 3 -5 17 -10 30 -10 13 0 26 -4 29 -9 3 -5 23
-11 43 -14 21 -2 67 -10 103 -17 36 -6 78 -12 93 -12 15 -1 30 -5 33 -10 3 -4
22 -8 43 -8 28 0 44 -7 64 -28 27 -28 35 -66 17 -77 -5 -3 -10 -31 -10 -61 0
-30 -4 -54 -10 -54 -5 0 -10 -15 -10 -34 0 -19 -4 -38 -10 -41 -5 -3 -10 -16
-11 -28 -1 -43 -33 -82 -70 -85 -19 -2 -38 -8 -43 -13 -6 -5 -29 -9 -53 -9
-24 0 -43 -4 -43 -10 0 -5 -12 -10 -26 -10 -55 0 -75 -65 -27 -87 15 -7 39
-13 53 -13 14 0 30 -4 35 -9 6 -5 21 -11 35 -13 23 -3 25 -8 28 -55 2 -29 -3
-63 -10 -75 -6 -13 -12 -27 -13 -33 0 -5 -6 -20 -12 -31 -7 -12 -10 -24 -7
-27 3 -2 -4 -21 -16 -41 -11 -20 -20 -43 -20 -50 0 -8 -13 -40 -30 -71 -16
-31 -30 -65 -30 -75 0 -11 -4 -22 -10 -25 -6 -3 -10 -17 -10 -30 0 -13 -4 -27
-10 -30 -5 -3 -10 -17 -10 -30 0 -13 -5 -27 -10 -30 -6 -3 -10 -15 -10 -25 0
-11 -9 -35 -20 -55 -11 -20 -20 -42 -20 -49 0 -8 -14 -40 -30 -71 -16 -31 -30
-63 -30 -71 0 -7 -9 -29 -20 -49 -11 -20 -20 -44 -20 -55 0 -11 -4 -20 -9 -20
-8 0 -26 -47 -23 -62 1 -4 -12 -32 -28 -63 -17 -32 -30 -63 -30 -70 0 -7 -13
-39 -30 -70 -17 -31 -30 -63 -30 -71 0 -20 -20 -53 -54 -92 -22 -23 -38 -32
-62 -32 -18 0 -36 -4 -39 -10 -3 -5 -30 -10 -60 -10 -30 0 -57 -4 -60 -10 -3
-5 -17 -10 -29 -10 -26 0 -51 -24 -42 -39 12 -19 69 -41 106 -41 48 0 80 -33
80 -83 0 -20 -4 -37 -10 -37 -5 0 -10 -9 -10 -20 0 -11 -4 -20 -10 -20 -5 0
-10 -9 -10 -20 0 -11 -4 -20 -10 -20 -5 0 -10 -9 -10 -19 0 -11 -3 -21 -7 -23
-14 -6 -73 -130 -67 -140 3 -5 -1 -17 -9 -26 -9 -9 -15 -19 -14 -22 3 -10
-185 -379 -199 -391 -8 -6 -14 -21 -14 -33 0 -12 -9 -28 -20 -36 -11 -8 -20
-22 -20 -32 0 -10 -4 -18 -10 -18 -5 0 -10 -9 -10 -20 0 -11 -4 -20 -10 -20
-5 0 -10 -9 -10 -20 0 -11 -4 -20 -10 -20 -5 0 -10 -11 -10 -24 0 -13 -7 -29
-15 -36 -14 -12 -59 -98 -57 -110 0 -3 -7 -13 -15 -22 -14 -16 -35 -18 -153
-18 -75 0 -139 -3 -143 -6 -16 -17 26 -34 82 -34 33 0 63 -5 66 -10 8 -14 462
-14 470 0 3 6 23 10 44 10 21 0 59 11 86 25 48 24 205 170 205 190 0 6 50 60
111 120 61 61 115 120 120 133 4 12 15 22 24 22 8 0 15 6 15 13 0 7 63 75 140
152 77 77 140 144 140 150 0 5 23 33 51 61 28 28 56 62 63 75 6 13 21 28 34
34 12 5 22 15 22 22 0 7 7 13 15 13 9 0 20 10 24 23 5 12 66 78 135 146 69 69
122 129 119 133 -3 5 4 12 16 15 12 3 21 10 21 17 0 6 68 79 150 161 83 82
150 154 150 160 0 6 43 53 95 105 52 52 95 99 95 104 0 4 73 82 163 172 89 91
163 171 165 179 2 8 10 15 18 15 8 0 19 11 24 25 5 14 15 25 21 25 6 0 41 14
77 31 37 17 88 39 115 49 26 9 50 20 54 23 10 11 181 8 188 -3 3 -6 40 -10 81
-10 43 0 74 -4 74 -10 0 -6 38 -10 94 -10 53 0 98 -4 101 -10 8 -13 162 -13
170 0 3 6 35 10 70 10 35 0 67 5 70 10 3 6 32 10 64 10 66 0 111 17 111 43 0
9 5 17 10 17 6 0 10 82 10 225 0 143 -4 225 -10 225 -5 0 -10 7 -10 16 0 22
-25 44 -49 44 -11 0 -23 5 -26 10 -3 6 -48 10 -101 10 l-94 0 0 33 c0 25 9 42
35 67 19 19 54 65 77 104 22 38 50 84 62 101 12 17 44 77 71 133 40 82 54 101
72 102 12 0 25 5 28 10 3 6 26 10 50 10 24 0 47 5 50 10 3 6 30 10 60 10 30 0
57 5 60 10 3 6 22 10 41 10 19 0 34 5 34 10 0 6 14 10 30 10 17 0 30 5 30 10
0 6 20 10 44 10 25 0 48 4 51 10 3 6 17 10 30 10 13 0 27 4 30 10 3 6 21 10
40 10 19 0 37 5 40 10 3 6 21 10 40 10 19 0 37 5 40 10 3 6 17 10 30 10 13 0
27 4 30 10 3 5 26 10 51 10 24 0 44 5 44 10 0 6 38 10 94 10 53 0 98 4 101 10
4 6 90 10 225 10 135 0 221 4 225 10 4 6 135 10 360 10 225 0 356 4 360 10 4
6 93 10 235 10 142 0 231 4 235 10 9 14 52 12 58 -2 4 -10 7 -10 18 0 10 9 95
12 355 12 218 0 345 4 349 10 4 6 102 10 261 10 177 0 260 4 273 12 29 18 91
-15 91 -47 0 -14 5 -25 10 -25 6 0 10 -9 10 -20 0 -11 5 -20 10 -20 6 0 10
-25 10 -55 0 -48 -4 -59 -27 -80 -16 -13 -33 -25 -39 -25 -22 0 -74 -66 -74
-93 0 -15 -6 -37 -13 -48 -9 -17 -9 -23 1 -26 6 -3 12 -17 12 -31 0 -16 8 -32
20 -40 11 -7 20 -21 20 -32 0 -13 7 -20 20 -20 11 0 20 -4 20 -10 0 -5 9 -10
20 -10 11 0 20 -4 20 -10 0 -5 13 -10 29 -10 16 0 32 -6 35 -12 5 -10 7 -10
12 0 3 6 14 12 25 12 11 0 29 6 42 12 33 19 97 80 92 88 -3 4 2 13 10 20 7 6
11 18 8 26 -3 8 1 21 8 30 10 13 10 17 -1 24 -7 4 -10 15 -7 23 3 9 -1 21 -9
27 -8 7 -14 18 -14 24 0 7 -20 32 -45 56 -25 24 -45 52 -45 62 0 10 -4 18 -10
18 -17 0 -11 47 10 85 11 20 20 44 20 55 0 11 5 20 10 20 6 0 10 9 10 20 0 16
7 20 34 20 19 0 38 4 41 10 3 6 39 10 80 10 41 0 76 4 79 9 3 5 67 12 141 16
74 4 138 11 141 16 3 5 25 9 49 9 24 0 47 5 50 10 3 6 26 10 50 10 24 0 47 5
50 10 3 6 21 10 40 10 19 0 37 5 40 10 3 6 26 10 50 10 24 0 47 5 50 10 3 6
22 10 41 10 19 0 34 5 34 10 0 6 18 10 40 10 22 0 40 5 40 10 0 6 15 10 34 10
19 0 38 5 41 10 3 6 17 10 30 10 13 0 27 4 30 10 3 6 17 10 30 10 13 0 27 4
30 10 3 6 15 10 25 10 11 0 35 9 55 20 20 11 41 20 48 20 19 0 181 83 198 102
9 10 24 18 33 18 9 0 16 5 16 10 0 6 8 10 19 10 10 0 24 7 31 15 7 8 16 15 21
15 16 0 159 149 159 165 0 8 5 15 10 15 6 0 10 23 10 50 0 28 -4 50 -10 50 -5
0 -10 6 -10 14 0 16 -132 147 -158 157 -9 4 -28 19 -41 33 -14 14 -29 26 -36
26 -6 0 -17 9 -25 20 -8 11 -22 20 -32 20 -10 0 -18 5 -18 10 0 6 -9 10 -20
10 -11 0 -20 5 -20 10 0 6 -8 10 -18 10 -10 0 -24 9 -32 20 -8 11 -22 20 -31
20 -9 0 -60 23 -114 50 -54 28 -106 50 -116 50 -10 0 -21 5 -24 10 -3 6 -14
10 -24 10 -22 0 -116 47 -131 65 -7 8 -18 15 -24 15 -7 0 -32 20 -56 45 -24
25 -49 45 -56 45 -6 0 -18 8 -27 18 -9 10 -32 24 -52 32 -19 8 -35 17 -35 22
0 4 -9 8 -20 8 -11 0 -20 5 -20 10 0 6 -13 10 -30 10 -16 0 -30 5 -30 10 0 6
-13 10 -30 10 -16 0 -30 5 -30 10 0 6 -11 10 -24 10 -14 0 -28 5 -31 10 -3 6
-21 10 -40 10 -19 0 -37 5 -40 10 -3 6 -21 10 -40 10 -19 0 -37 4 -40 10 -3 6
-26 10 -50 10 -24 0 -47 5 -50 10 -3 6 -31 10 -61 10 -30 0 -54 5 -54 10 0 6
-28 10 -64 10 -36 0 -68 5 -71 10 -3 6 -52 10 -110 10 -58 0 -107 4 -110 10
-4 6 -147 10 -395 10 -248 0 -391 -4 -395 -10 -4 -6 -110 -10 -285 -10 -175 0
-281 -4 -285 -10 -4 -6 -113 -10 -296 -10 -186 0 -289 -4 -289 -10 0 -6 -110
-10 -309 -10 -196 0 -312 -4 -316 -10 -4 -6 -103 -10 -265 -10 -162 0 -261 -4
-265 -10 -4 -6 -93 -10 -234 -10 -125 0 -231 -4 -236 -9 -6 -5 -147 -12 -315
-15 -168 -4 -340 -9 -383 -12 -48 -3 -83 -2 -91 5 -6 6 -58 34 -115 64 -56 29
-111 61 -122 70 -10 9 -21 17 -24 17 -6 0 -20 14 -248 239 -108 106 -197 199
-197 206 0 7 -6 18 -14 24 -32 27 17 91 70 91 18 0 36 5 39 10 3 6 16 10 29
10 34 0 66 40 66 83 0 20 5 37 10 37 6 0 10 62 10 165 0 103 -4 165 -10 165
-5 0 -10 19 -10 42 0 32 -6 49 -27 70 l-27 28 -226 0 c-186 0 -233 -3 -258
-16 -42 -20 -79 -27 -87 -14 -3 5 -17 10 -29 10 -13 0 -29 6 -35 14 -7 8 -34
17 -60 21 -27 4 -60 12 -74 20 -14 7 -52 16 -86 20 -65 7 -75 15 -235 165
-145 136 -186 179 -186 194 0 9 -8 16 -18 16 -9 0 -22 10 -27 23 -6 12 -20 26
-32 32 -13 5 -23 15 -23 21 0 6 -232 243 -515 526 -283 283 -515 519 -515 524
0 5 -118 128 -262 273 -144 145 -267 273 -273 285 -6 11 -20 25 -33 31 -12 5
-22 15 -22 22 0 7 -7 13 -15 13 -9 0 -20 10 -24 23 -5 12 -86 98 -180 192 -94
93 -171 174 -171 180 0 13 -82 95 -96 95 -6 0 -17 7 -24 15 -20 25 -71 45
-112 45 -21 0 -38 5 -38 10 0 6 -68 10 -185 10 -117 0 -185 4 -185 10 0 6 -30
10 -70 10 -38 0 -70 -4 -70 -10z"/>
</g>
</svg>
